<?xml version="1.0" encoding="iso-8859-1"?>
<!-- Generator: Adobe Illustrator 19.0.0, SVG Export Plug-In . SVG Version: 6.00 Build 0)  -->
<svg version="1.1" id="Capa_1" xmlns="http://www.w3.org/2000/svg" xmlns:xlink="http://www.w3.org/1999/xlink" x="0px" y="0px"
	 viewBox="0 0 512 512" style="enable-background:new 0 0 512 512;" xml:space="preserve">
<g>
	<g>
		<path d="M86.133,385.6H40.266c-5.67,0-10.266,4.596-10.266,10.266v105.868C30,507.404,34.596,512,40.266,512h45.867
			c5.67,0,10.266-4.596,10.266-10.266V395.866C96.399,390.196,91.803,385.6,86.133,385.6z"/>
	</g>
</g>
<g>
	<g>
		<path d="M182.534,289.2h-45.868c-5.67,0-10.266,4.596-10.266,10.266v202.267c-0.001,5.671,4.596,10.267,10.266,10.267h45.868
			c5.67,0,10.266-4.596,10.266-10.266V299.466C192.8,293.796,188.204,289.2,182.534,289.2z"/>
	</g>
</g>
<g>
	<g>
		<path d="M278.934,192.801h-45.868c-5.67,0-10.266,4.596-10.266,10.266v298.667c0,5.67,4.596,10.266,10.266,10.266h45.868
			c5.67,0,10.266-4.596,10.266-10.266V203.067C289.2,197.397,284.604,192.801,278.934,192.801z"/>
	</g>
</g>
<g>
	<g>
		<path d="M375.333,96.401h-45.867c-5.67,0-10.266,4.596-10.266,10.266v395.067c0,5.67,4.597,10.266,10.266,10.266h45.867
			c5.67,0,10.266-4.596,10.266-10.266V106.667C385.599,100.997,381.003,96.401,375.333,96.401z"/>
	</g>
</g>
<g>
	<g>
		<path d="M471.734,0h-45.868c-5.67,0-10.266,4.596-10.266,10.266v491.467c0,5.67,4.596,10.266,10.266,10.266h45.868
			c5.67,0,10.266-4.596,10.266-10.266V10.266C482,4.596,477.404,0,471.734,0z"/>
	</g>
</g>
<g>
</g>
<g>
</g>
<g>
</g>
<g>
</g>
<g>
</g>
<g>
</g>
<g>
</g>
<g>
</g>
<g>
</g>
<g>
</g>
<g>
</g>
<g>
</g>
<g>
</g>
<g>
</g>
<g>
</g>
</svg>
